<svg width="2251" height="2048" viewBox="0 0 2251 2048" fill="none" xmlns="http://www.w3.org/2000/svg">
<path d="M1006 650.144C1008.97 647.754 1010.16 645.235 1009.08 643.411C1008.01 641.584 1004.79 640.703 1000.49 641.099C962.831 643.231 877.779 660.493 841.477 686.894C820.234 701.382 805.577 717.458 797.451 731.957C790.448 715.852 782.596 701.382 777.434 691.862C776.025 689.367 772.231 688.642 767.306 690.006C762.385 691.368 757.014 694.654 753.092 698.755C714.968 733.626 662.49 822.224 670.177 860.708C669.277 864.693 668.787 868.584 668.739 872.345C653.559 856.519 637.31 842.666 627.106 833.981C624.717 832.003 620.868 832.3 616.861 834.859C612.851 837.413 609.237 841.904 607.319 846.787C586.823 889.331 573.326 987.909 595.922 1023.19C598.827 1028.36 601.963 1032.99 605.256 1037.14C585.213 1026.63 565.24 1018.21 552.529 1012.87C549.463 1011.63 545.958 1012.93 543.221 1016.42C540.488 1019.91 538.915 1025.13 539.098 1030.28C537.342 1071.75 559.364 1156.37 590.248 1192.94C576.311 1190.33 563.795 1188.44 554.659 1187.08C551.267 1186.61 548.406 1188.71 547.096 1192.75C545.786 1196.79 546.236 1202.23 548.34 1207.18C560.809 1244.26 606.723 1311.98 648.418 1345.02C630.926 1345.56 615.409 1346.58 604.166 1347.3C600.163 1347.61 597.876 1350.77 598.183 1355.78C598.487 1360.78 601.41 1366.97 605.995 1372.17C641.704 1420.54 760.728 1505.82 826.183 1513.54C883.889 1522.91 917.945 1510.15 924.666 1488.73C953.764 1495.98 982.518 1500.45 1000.49 1501.47C1004.78 1501.86 1008 1500.98 1009.08 1499.15C1010.16 1497.33 1008.98 1494.82 1006 1492.42C992.5 1482.5 974.597 1466.21 956.384 1449.54C976.858 1435.86 977.232 1406.27 963.584 1374.22C945.528 1339.24 896.87 1274.84 885.762 1243.91C884.127 1240.47 880.856 1237.67 876.934 1236.36C873.012 1235.06 868.936 1235.44 866.053 1237.47C857.82 1243.04 846.661 1251.56 835.487 1261.96C831.379 1228.12 818.906 1179.71 818.555 1155.75C818.236 1152.49 816.367 1149.42 813.502 1147.51C810.637 1145.61 807.147 1145.1 804.157 1146.25C795.929 1149.27 784.594 1154.04 772.604 1160.24C783.061 1127.57 789.526 1070.59 798.845 1045C799.752 1041.76 799.101 1038.33 797.085 1035.78C795.065 1033.24 791.915 1031.9 788.637 1032.29C775.268 1033.69 753.9 1037.17 732.628 1043.67C736.445 1040.67 740.195 1037.4 743.828 1033.86C767.69 1008.16 801.135 945.65 823.022 920.715C825.268 917.774 826.135 914.24 825.323 911.215C824.511 908.193 822.104 906.064 818.833 905.596C804.856 903.388 781.484 901.131 757.252 902.312C760.087 900.241 762.821 897.972 765.469 895.55C765.821 895.369 766.172 895.201 766.523 895.014C799.902 875.562 860.279 821.459 894.21 801.969C897.84 799.59 900.434 796.28 901.144 793.066C901.854 789.855 900.566 787.159 897.613 785.891C886.776 781.03 869.086 774.396 848.933 769.585C865.171 763.169 883.106 753.192 900.884 741.145C930.304 719.488 977.751 670.897 1006 650.144Z" fill="#9A5C0F"/>
<path d="M1674.34 1187.07C1665.21 1188.44 1652.69 1190.33 1638.75 1192.94C1669.64 1156.36 1691.66 1071.75 1689.9 1030.28C1690.09 1025.13 1688.51 1019.91 1685.78 1016.42C1683.04 1012.93 1679.54 1011.62 1676.47 1012.86C1663.76 1018.2 1643.79 1026.63 1623.75 1037.13C1627.04 1032.98 1630.17 1028.36 1633.08 1023.19C1655.68 987.903 1642.18 889.328 1621.68 846.782C1619.77 841.898 1616.15 837.407 1612.14 834.854C1608.13 832.294 1604.28 832 1601.9 833.975C1591.69 842.66 1575.44 856.514 1560.26 872.339C1560.21 868.579 1559.72 864.687 1558.82 860.702C1566.52 822.219 1514.03 733.618 1475.91 698.75C1471.99 694.649 1466.62 691.362 1461.7 690.001C1456.77 688.639 1452.98 689.364 1451.57 691.856C1446.41 701.376 1438.56 715.846 1431.55 731.951C1423.43 717.452 1408.77 701.376 1387.53 686.889C1351.23 660.487 1266.17 643.225 1228.51 641.093C1224.22 640.697 1221 641.582 1219.92 643.405C1218.84 645.232 1220.03 647.751 1223.01 650.139C1251.25 670.891 1298.7 719.482 1328.12 741.142C1345.9 753.189 1363.83 763.166 1380.07 769.582C1359.92 774.393 1342.23 781.027 1331.39 785.888C1328.44 787.156 1327.15 789.855 1327.86 793.063C1328.57 796.274 1331.17 799.584 1334.79 801.966C1368.73 821.457 1429.11 875.559 1462.48 895.012C1462.83 895.195 1463.18 895.364 1463.54 895.547C1466.18 897.97 1468.92 900.238 1471.75 902.309C1447.53 901.128 1424.15 903.385 1410.17 905.593C1406.9 906.064 1404.49 908.19 1403.68 911.212C1402.87 914.237 1403.74 917.771 1405.98 920.712C1427.87 945.647 1461.32 1008.16 1485.18 1033.86C1488.81 1037.4 1492.56 1040.66 1496.38 1043.67C1475.1 1037.17 1453.74 1033.69 1440.36 1032.29C1437.09 1031.9 1433.94 1033.24 1431.92 1035.78C1429.9 1038.33 1429.25 1041.76 1430.15 1045C1439.47 1070.59 1445.93 1127.57 1456.39 1160.24C1444.4 1154.04 1433.07 1149.27 1424.84 1146.24C1421.85 1145.09 1418.36 1145.6 1415.5 1147.51C1412.63 1149.42 1410.76 1152.48 1410.44 1155.75C1410.09 1179.7 1397.62 1228.11 1393.51 1261.95C1382.34 1251.56 1371.18 1243.03 1362.95 1237.47C1360.06 1235.44 1355.99 1235.06 1352.06 1236.36C1348.14 1237.67 1344.87 1240.47 1343.24 1243.9C1332.13 1274.84 1283.47 1339.24 1265.41 1374.22C1251.77 1406.27 1252.14 1435.86 1272.61 1449.54C1254.4 1466.2 1236.5 1482.49 1222.99 1492.42C1220.02 1494.81 1218.84 1497.33 1219.92 1499.15C1221 1500.98 1224.22 1501.86 1228.51 1501.46C1246.48 1500.45 1275.23 1495.98 1304.33 1488.73C1311.05 1510.14 1345.11 1522.91 1402.81 1513.54C1468.27 1505.82 1587.29 1420.54 1623 1372.17C1627.58 1366.97 1630.51 1360.78 1630.81 1355.78C1631.12 1350.77 1628.83 1347.61 1624.83 1347.3C1613.59 1346.58 1598.07 1345.55 1580.58 1345.02C1622.27 1311.98 1668.19 1244.26 1680.65 1207.18C1682.76 1202.22 1683.21 1196.79 1681.9 1192.75C1680.6 1188.71 1677.73 1186.61 1674.34 1187.07Z" fill="#9A5C0F"/>
<g clip-path="url(#clip0_8_4)">
<path fill-rule="evenodd" clip-rule="evenodd" d="M1275.63 901.862C1262.47 887.331 1239.33 890.737 1226.1 905.338L1158.74 979.296L1033.81 927.913C1021.84 924.507 1009.79 920.101 994.949 936.481C987.376 944.828 971.638 962.196 994.949 987.898L1080.61 1065.09L1024.87 1126.31L972.863 1112C965.152 1109.81 959.956 1111.52 955.995 1116.33C953.998 1119.08 939.517 1130.89 949.615 1142.02L1010.08 1193.8L1057.13 1260.35C1064.44 1268.42 1071.23 1263.39 1080.52 1253.68C1086.4 1247.19 1085.13 1243.86 1083.36 1234.41L1071.61 1177.56L1126.97 1116.42L1197 1210.73C1220.3 1236.43 1236.05 1219.05 1243.62 1210.73C1258.47 1194.34 1254.48 1181.06 1251.39 1167.86L1205.09 1030.13L1272.17 956.046C1285.41 941.456 1288.8 916.381 1275.63 901.862Z" fill="#9A5C0F"/>
</g>
<path d="M1083.79 522.26C1074.99 522.26 1067.86 532.471 1067.86 545.075C1067.86 555.688 1072.92 564.595 1079.77 567.15L1063.48 621.241C1070.79 623.145 1076.34 632.321 1076.34 643.356C1076.34 655.771 1069.32 665.843 1060.65 665.843C1051.99 665.843 1044.97 655.77 1044.97 643.355C1044.97 634.529 1048.52 626.902 1053.68 623.221L1030.26 570.923C1033.95 567.081 1036.35 560.862 1036.35 553.822C1036.35 542.141 1029.75 532.657 1021.6 532.657C1013.45 532.657 1006.84 542.143 1006.84 553.822C1006.84 565.502 1013.45 574.968 1021.6 574.968C1021.94 574.968 1022.28 574.958 1022.61 574.927L1041.93 724.782H1187.58L1206.91 574.927C1207.24 574.958 1207.58 574.968 1207.92 574.968C1216.07 574.968 1222.68 565.502 1222.68 553.822C1222.68 542.142 1216.07 532.658 1207.92 532.658C1199.77 532.658 1193.16 542.144 1193.16 553.822C1193.16 560.901 1195.59 567.149 1199.32 570.986L1175.97 623.49C1180.94 627.266 1184.33 634.739 1184.33 643.357C1184.33 655.771 1177.31 665.844 1168.64 665.844C1159.98 665.844 1152.95 655.771 1152.95 643.356C1152.95 632.061 1158.76 622.715 1166.34 621.117L1150.32 567.293C1157.36 564.932 1162.61 555.881 1162.61 545.075C1162.61 532.469 1155.47 522.26 1146.68 522.26C1137.88 522.26 1130.74 532.471 1130.74 545.075C1130.74 554.844 1135.03 563.173 1141.06 566.427L1120.53 616.579C1127.27 619.563 1132.17 628.536 1132.17 639.169C1132.17 652.237 1124.77 662.831 1115.65 662.831C1106.53 662.831 1099.14 652.237 1099.14 639.168C1099.14 629.161 1103.48 620.616 1109.6 617.156L1089.26 566.509C1095.36 563.311 1099.72 554.922 1099.72 545.074C1099.72 532.469 1092.58 522.259 1083.79 522.259L1083.79 522.26ZM1041.91 737.118C1030.86 739.602 1031.38 763.421 1043.84 763.421H1046.91L1046.94 763.649H1182.59L1182.61 763.422H1186.13C1198.13 763.422 1198.98 739.704 1188.12 737.12H1041.91L1041.91 737.118Z" fill="#9A5C0F"/>
<path d="M933.938 1544.12V1527.88H1010.38V1544.12H982V1621H962.375V1544.12H933.938ZM1022.75 1621V1551.12H1041.5V1563.38H1042.25C1043.5 1559.04 1045.62 1555.77 1048.62 1553.56C1051.62 1551.31 1055.08 1550.19 1059 1550.19C1059.96 1550.19 1061 1550.25 1062.12 1550.38C1063.25 1550.5 1064.23 1550.67 1065.06 1550.88V1568C1064.15 1567.71 1062.88 1567.48 1061.25 1567.31C1059.67 1567.1 1058.21 1567 1056.88 1567C1052.62 1567 1049.1 1568.35 1046.31 1571.06C1043.52 1573.73 1042.12 1577.21 1042.12 1581.5V1621H1022.75ZM1095.06 1622.31C1088.4 1622.31 1082.85 1620.58 1078.44 1617.12C1074.06 1613.62 1071.88 1608.42 1071.88 1601.5C1071.88 1596.29 1073.08 1592.21 1075.5 1589.25C1077.96 1586.25 1081.19 1584.06 1085.19 1582.69C1089.19 1581.27 1093.48 1580.35 1098.06 1579.94C1104.15 1579.35 1108.48 1578.75 1111.06 1578.12C1113.69 1577.46 1115 1576 1115 1573.75V1573.44C1115 1570.56 1114.08 1568.33 1112.25 1566.75C1110.42 1565.17 1107.77 1564.38 1104.31 1564.38C1100.85 1564.38 1098.02 1565.12 1095.81 1566.62C1093.65 1568.12 1092.21 1570.04 1091.5 1572.38L1073.88 1569.56C1075.54 1563.48 1079.04 1558.75 1084.38 1555.38C1089.75 1551.96 1096.42 1550.25 1104.38 1550.25C1109.54 1550.25 1114.4 1551.06 1118.94 1552.69C1123.52 1554.31 1127.23 1556.88 1130.06 1560.38C1132.9 1563.83 1134.31 1568.33 1134.31 1573.88V1621H1116V1611.25H1115.44C1113.73 1614.54 1111.19 1617.21 1107.81 1619.25C1104.48 1621.29 1100.23 1622.31 1095.06 1622.31ZM1090.31 1600.88C1090.31 1603.54 1091.27 1605.56 1093.19 1606.94C1095.15 1608.27 1097.6 1608.94 1100.56 1608.94C1104.81 1608.94 1108.29 1607.71 1111 1605.25C1113.75 1602.79 1115.12 1599.73 1115.12 1596.06V1588.62C1114.38 1589.12 1113.19 1589.58 1111.56 1590C1109.98 1590.42 1108.29 1590.77 1106.5 1591.06C1104.71 1591.31 1103.1 1591.54 1101.69 1591.75C1098.27 1592.25 1095.52 1593.23 1093.44 1594.69C1091.35 1596.1 1090.31 1598.17 1090.31 1600.88ZM1214.94 1551.12L1190.5 1621H1168.62L1144.31 1551.12H1164.81L1179.5 1601.19H1180.25L1194.69 1551.12H1214.94ZM1256.69 1622.38C1249.52 1622.38 1243.35 1620.92 1238.19 1618C1233.02 1615.08 1229.04 1610.94 1226.25 1605.56C1223.46 1600.15 1222.06 1593.75 1222.06 1586.38C1222.06 1579.21 1223.44 1572.92 1226.19 1567.5C1228.98 1562.08 1232.9 1557.85 1237.94 1554.81C1242.98 1551.77 1248.92 1550.25 1255.75 1550.25C1261.92 1550.25 1267.48 1551.56 1272.44 1554.19C1277.44 1556.81 1281.4 1560.75 1284.31 1566C1287.27 1571.25 1288.75 1577.83 1288.75 1585.75V1591H1241.12C1241.33 1596.29 1242.88 1600.44 1245.75 1603.44C1248.62 1606.44 1252.38 1607.94 1257 1607.94C1260.21 1607.94 1262.96 1607.25 1265.25 1605.88C1267.58 1604.5 1269.25 1602.5 1270.25 1599.88L1288.12 1601.06C1286.75 1607.48 1283.31 1612.65 1277.81 1616.56C1272.35 1620.44 1265.31 1622.38 1256.69 1622.38ZM1241.25 1579.06H1270.19C1269.73 1574.65 1268.31 1571.15 1265.94 1568.56C1263.56 1565.98 1260.23 1564.69 1255.94 1564.69C1251.6 1564.69 1248.17 1566.04 1245.62 1568.75C1243.12 1571.42 1241.67 1574.85 1241.25 1579.06ZM1320.88 1527.88V1621H1301.5V1527.88H1320.88Z" fill="#9A5C0F"/>
<path d="M1063.26 1698L1056.13 1671.8H1063.47L1067.55 1689.42H1067.76L1072.02 1671.8H1079.2L1083.51 1689.3H1083.74L1087.73 1671.8H1095.06L1087.94 1698H1080.25L1075.75 1681.52H1075.45L1070.95 1698H1063.26ZM1098.93 1698V1671.8H1106.2V1698H1098.93ZM1102.56 1668.45C1101.48 1668.45 1100.55 1668.09 1099.77 1667.37C1099.01 1666.65 1098.62 1665.78 1098.62 1664.77C1098.62 1663.75 1099.01 1662.89 1099.77 1662.19C1100.55 1661.47 1101.48 1661.11 1102.56 1661.11C1103.64 1661.11 1104.56 1661.47 1105.33 1662.19C1106.11 1662.89 1106.5 1663.75 1106.5 1664.77C1106.5 1665.78 1106.11 1666.65 1105.33 1667.37C1104.56 1668.09 1103.64 1668.45 1102.56 1668.45ZM1125.93 1671.8V1677.28H1120.96V1689.94C1120.96 1691.64 1121.79 1692.49 1123.45 1692.49C1123.73 1692.49 1124.03 1692.47 1124.36 1692.42C1124.7 1692.38 1125 1692.32 1125.25 1692.26L1126.4 1697.7C1124.85 1698.15 1123.35 1698.38 1121.9 1698.38C1119.3 1698.38 1117.29 1697.72 1115.85 1696.41C1114.43 1695.09 1113.72 1693.26 1113.72 1690.9V1677.28H1110.16V1671.8H1113.72V1665.56H1120.96V1671.8H1125.93ZM1137.93 1682.86V1698H1130.66V1663.08H1137.7V1676.46H1138.02C1138.62 1674.91 1139.57 1673.7 1140.88 1672.8C1142.21 1671.91 1143.87 1671.47 1145.85 1671.47C1148.57 1671.47 1150.76 1672.34 1152.41 1674.09C1154.07 1675.84 1154.9 1678.26 1154.9 1681.34V1698H1147.66V1682.62C1147.66 1681 1147.25 1679.74 1146.44 1678.85C1145.62 1677.95 1144.46 1677.49 1142.95 1677.49C1141.48 1677.49 1140.27 1677.97 1139.34 1678.92C1138.4 1679.86 1137.93 1681.17 1137.93 1682.86Z" fill="#9A5C0F"/>
<path d="M932.188 1823.25C923.938 1823.25 916.521 1821.38 909.938 1817.62C903.354 1813.88 898.146 1808.44 894.312 1801.31C890.479 1794.19 888.562 1785.58 888.562 1775.5C888.562 1765.33 890.479 1756.69 894.312 1749.56C898.146 1742.44 903.354 1737 909.938 1733.25C916.521 1729.5 923.938 1727.62 932.188 1727.62C940.438 1727.62 947.833 1729.5 954.375 1733.25C960.958 1737 966.167 1742.44 970 1749.56C973.833 1756.69 975.75 1765.33 975.75 1775.5C975.75 1785.67 973.833 1794.31 970 1801.44C966.167 1808.52 960.958 1813.94 954.375 1817.69C947.833 1821.4 940.438 1823.25 932.188 1823.25ZM908.5 1775.5C908.5 1785.33 910.646 1792.85 914.938 1798.06C919.271 1803.27 925.021 1805.88 932.188 1805.88C939.312 1805.88 945.021 1803.27 949.312 1798.06C953.646 1792.85 955.812 1785.33 955.812 1775.5C955.812 1765.62 953.646 1758.08 949.312 1752.88C945.021 1747.62 939.312 1745 932.188 1745C925.021 1745 919.271 1747.62 914.938 1752.88C910.646 1758.08 908.5 1765.62 908.5 1775.5ZM990 1848.12V1752.12H1009.06V1763.94H1009.94C1010.81 1762.02 1012.04 1760.08 1013.62 1758.12C1015.25 1756.17 1017.38 1754.54 1020 1753.25C1022.67 1751.92 1025.94 1751.25 1029.81 1751.25C1034.94 1751.25 1039.62 1752.58 1043.88 1755.25C1048.17 1757.88 1051.6 1761.85 1054.19 1767.19C1056.77 1772.52 1058.06 1779.19 1058.06 1787.19C1058.06 1794.94 1056.81 1801.5 1054.31 1806.88C1051.81 1812.21 1048.42 1816.25 1044.12 1819C1039.83 1821.75 1035.02 1823.12 1029.69 1823.12C1025.94 1823.12 1022.75 1822.5 1020.12 1821.25C1017.54 1820 1015.42 1818.44 1013.75 1816.56C1012.12 1814.65 1010.85 1812.73 1009.94 1810.81H1009.38V1848.12H990ZM1008.94 1787.12C1008.94 1793.29 1010.21 1798.27 1012.75 1802.06C1015.33 1805.85 1018.96 1807.75 1023.62 1807.75C1028.38 1807.75 1032 1805.83 1034.5 1802C1037 1798.12 1038.25 1793.17 1038.25 1787.12C1038.25 1781.04 1037 1776.1 1034.5 1772.31C1032.04 1768.52 1028.42 1766.62 1023.62 1766.62C1018.96 1766.62 1015.33 1768.48 1012.75 1772.19C1010.21 1775.9 1008.94 1780.88 1008.94 1787.12ZM1115.5 1792.31V1752.12H1134.88V1822H1116.25V1809.31H1115.5C1113.96 1813.4 1111.35 1816.69 1107.69 1819.19C1104.06 1821.69 1099.62 1822.92 1094.38 1822.88C1087.33 1822.92 1081.62 1820.6 1077.25 1815.94C1072.92 1811.23 1070.75 1804.79 1070.75 1796.62V1752.12H1090.12V1793.25C1090.12 1797.33 1091.23 1800.58 1093.44 1803C1095.65 1805.38 1098.58 1806.54 1102.25 1806.5C1105.71 1806.54 1108.77 1805.35 1111.44 1802.94C1114.15 1800.52 1115.5 1796.98 1115.5 1792.31ZM1169.75 1728.88V1822H1150.38V1728.88H1169.75ZM1217.06 1823.38C1209.9 1823.38 1203.73 1821.92 1198.56 1819C1193.4 1816.08 1189.42 1811.94 1186.62 1806.56C1183.83 1801.15 1182.44 1794.75 1182.44 1787.38C1182.44 1780.21 1183.81 1773.92 1186.56 1768.5C1189.35 1763.08 1193.27 1758.85 1198.31 1755.81C1203.35 1752.77 1209.29 1751.25 1216.12 1751.25C1222.29 1751.25 1227.85 1752.56 1232.81 1755.19C1237.81 1757.81 1241.77 1761.75 1244.69 1767C1247.65 1772.25 1249.12 1778.83 1249.12 1786.75V1792H1201.5C1201.71 1797.29 1203.25 1801.44 1206.12 1804.44C1209 1807.44 1212.75 1808.94 1217.38 1808.94C1220.58 1808.94 1223.33 1808.25 1225.62 1806.88C1227.96 1805.5 1229.62 1803.5 1230.62 1800.88L1248.5 1802.06C1247.12 1808.48 1243.69 1813.65 1238.19 1817.56C1232.73 1821.44 1225.69 1823.38 1217.06 1823.38ZM1201.62 1780.06H1230.56C1230.1 1775.65 1228.69 1772.15 1226.31 1769.56C1223.94 1766.98 1220.6 1765.69 1216.31 1765.69C1211.98 1765.69 1208.54 1767.04 1206 1769.75C1203.5 1772.42 1202.04 1775.85 1201.62 1780.06ZM1281.25 1781.62V1822H1261.88V1752.12H1280.94V1764.56H1281.62C1283.21 1760.48 1285.73 1757.25 1289.19 1754.88C1292.65 1752.46 1296.96 1751.25 1302.12 1751.25C1309.42 1751.25 1315.25 1753.6 1319.62 1758.31C1324.04 1762.98 1326.25 1769.4 1326.25 1777.56V1822H1306.88V1781C1306.88 1776.71 1305.77 1773.35 1303.56 1770.94C1301.4 1768.52 1298.38 1767.31 1294.5 1767.31C1290.58 1767.31 1287.4 1768.58 1284.94 1771.12C1282.48 1773.62 1281.25 1777.12 1281.25 1781.62ZM1373.25 1823.38C1366.08 1823.38 1359.94 1821.85 1354.81 1818.81C1349.69 1815.77 1345.75 1811.54 1343 1806.12C1340.29 1800.71 1338.94 1794.46 1338.94 1787.38C1338.94 1780.21 1340.31 1773.92 1343.06 1768.5C1345.85 1763.08 1349.81 1758.85 1354.94 1755.81C1360.06 1752.77 1366.15 1751.25 1373.19 1751.25C1379.27 1751.25 1384.6 1752.35 1389.19 1754.56C1393.77 1756.77 1397.4 1759.88 1400.06 1763.88C1402.73 1767.88 1404.19 1772.58 1404.44 1778H1386.19C1385.65 1774.54 1384.29 1771.75 1382.12 1769.62C1379.96 1767.46 1377.08 1766.38 1373.5 1766.38C1369 1766.38 1365.4 1768.19 1362.69 1771.81C1359.98 1775.4 1358.62 1780.5 1358.62 1787.12C1358.62 1793.79 1359.96 1798.98 1362.62 1802.69C1365.33 1806.4 1368.96 1808.25 1373.5 1808.25C1376.83 1808.25 1379.65 1807.21 1381.94 1805.12C1384.23 1803.04 1385.65 1800.12 1386.19 1796.38H1404.44C1404.15 1801.71 1402.71 1806.42 1400.12 1810.5C1397.54 1814.54 1393.96 1817.71 1389.38 1820C1384.83 1822.25 1379.46 1823.38 1373.25 1823.38ZM1448.81 1823.38C1441.65 1823.38 1435.48 1821.92 1430.31 1819C1425.15 1816.08 1421.17 1811.94 1418.38 1806.56C1415.58 1801.15 1414.19 1794.75 1414.19 1787.38C1414.19 1780.21 1415.56 1773.92 1418.31 1768.5C1421.1 1763.08 1425.02 1758.85 1430.06 1755.81C1435.1 1752.77 1441.04 1751.25 1447.88 1751.25C1454.04 1751.25 1459.6 1752.56 1464.56 1755.19C1469.56 1757.81 1473.52 1761.75 1476.44 1767C1479.4 1772.25 1480.88 1778.83 1480.88 1786.75V1792H1433.25C1433.46 1797.29 1435 1801.44 1437.88 1804.44C1440.75 1807.44 1444.5 1808.94 1449.12 1808.94C1452.33 1808.94 1455.08 1808.25 1457.38 1806.88C1459.71 1805.5 1461.38 1803.5 1462.38 1800.88L1480.25 1802.06C1478.88 1808.48 1475.44 1813.65 1469.94 1817.56C1464.48 1821.44 1457.44 1823.38 1448.81 1823.38ZM1433.38 1780.06H1462.31C1461.85 1775.65 1460.44 1772.15 1458.06 1769.56C1455.69 1766.98 1452.35 1765.69 1448.06 1765.69C1443.73 1765.69 1440.29 1767.04 1437.75 1769.75C1435.25 1772.42 1433.79 1775.85 1433.38 1780.06Z" fill="#9A5C0F"/>
<defs>
<clipPath id="clip0_8_4">
<rect width="338" height="372" fill="white" transform="translate(946.003 892.329)"/>
</clipPath>
</defs>
</svg>
